<?xml version="1.0" encoding="utf-8"?>
<!-- Generator: Adobe Illustrator 18.0.0, SVG Export Plug-In . SVG Version: 6.00 Build 0)  -->
<!DOCTYPE svg PUBLIC "-//W3C//DTD SVG 1.1//EN" "http://www.w3.org/Graphics/SVG/1.1/DTD/svg11.dtd">
<svg version="1.1" id="Layer_1" xmlns="http://www.w3.org/2000/svg" xmlns:xlink="http://www.w3.org/1999/xlink" x="0px" y="0px"
	 viewBox="0 0 300 300" enable-background="new 0 0 300 300" xml:space="preserve">
<g>
	<circle fill="#5F6062" cx="150" cy="150" r="125"/>
	<g>
		<path fill="#FFFFFF" d="M221.3,158.2c0-11.3-5.7-12.4-15.8-13.5c-8.9-0.9-19.1-2-23.5-14.7c-0.2-0.4-0.1-0.9,0.1-1.2
			c0.2-0.4,0.5-0.8,1-0.8c0.8-0.3,1.8,0.2,2.2,1c3.8,10.7,12.3,11.5,20.7,12.4c4.1,0.4,8.8,0.9,12.4,3c0.4,0.2,0.9,0.2,1.2,0
			c0.4-0.2,0.6-0.7,0.6-1.2c-2-22.7-11.6-34.1-19.2-39.7c-4.3-3.1-8.2-4.5-10.6-5.1c-0.5-0.1-1,0.1-1.2,0.4
			c-0.3,0.4-0.3,0.9-0.1,1.3c1.7,2.9,2.6,6.3,3.5,9.7c1.9,6.9,3.6,13,11.1,14.4c0.4,0.1,0.8,0.3,1.1,0.8c0.2,0.4,0.3,0.8,0.2,1.2
			c-0.2,0.8-0.8,1.3-1.7,1.3c-0.1,0-0.2,0-0.3,0c-9.6-1.9-11.7-9.5-13.8-16.9c-1.3-4.9-2.7-9.6-6.1-12.5c-4.9-4.1-13.2-6.8-20.6-6.8
			c-1.2,0-2.4,0.1-3.6,0.2c-2.4,0.3-5.8,1.2-8.5,3.6c-0.2,0.2-0.4,0.5-0.4,0.8c0,0.3,0.1,0.7,0.3,0.9c3.5,3.8,6.8,8.8,9.8,14.8
			c0.4,0.8,0.1,1.8-0.8,2.2c-0.8,0.4-1.8,0.1-2.2-0.8c-3.4-6.8-7.2-12.2-11.1-15.9l0,0l0,0c-5.6-5.2-10.5-6.4-13.7-6.4
			c-0.8,0-1.7,0.1-2.5,0.3c-4.5,0.9-7.5,3.8-8.3,6.2c-0.2,0.3-0.1,0.8,0.1,1.1c1,1.7,1.7,3.6,2.3,5.3c2,5.6,4,10.9,13.6,11.3
			c0.4,0,0.8,0.2,1.2,0.6c0.3,0.3,0.5,0.8,0.4,1.2c-0.1,0.9-0.8,1.6-1.8,1.6l0,0c-11.9-0.6-14.5-7.8-16.7-13.6
			c-0.8-2.3-1.5-3.9-2.3-5.1c0-0.1-0.1-0.1-0.1-0.2c-0.1-0.1-0.2-0.2-0.2-0.2c-0.1-0.1-0.1-0.2-0.2-0.2c-1.1-1.2-2.3-1.7-4.2-1.7
			c-4.1,0-7.2,1.3-9.3,3.8c-0.8,0.9-1.4,2.1-1.8,3.4c0,0.1-0.1,0.2-0.1,0.2c0,0.2-0.1,0.2-0.2,0.4c0,0.1,0,0.1-0.1,0.2
			c-0.9,3.2-1.1,7.2-0.2,10.8c1.4,6.6,5.5,14.8,16.9,16.9c1.1,0.2,2.2,0.2,3.4,0.2c2.7,0,5.5-0.4,8.6-0.8c3.2-0.5,6.8-1,10.5-1
			c5.6,0,10.5,1.2,14.9,3.7c0.3,0.2,0.7,0.2,1,0.1c0.3-0.1,0.6-0.4,0.8-0.7c2-5.1,5.1-8.4,7.5-11.1c4.8-5.3,8.4-9.2,3.3-22.6
			c-0.2-0.4-0.2-0.9,0-1.3c0.2-0.4,0.5-0.8,0.9-0.9c0.8-0.3,1.8,0.2,2.2,1c5.8,15.3,1.2,20.3-4,26.1c-2.6,2.8-5.6,6.1-7.3,11.2
			c-0.2,0.5,0,1.1,0.4,1.4c11.8,8.6,18,11.4,24.6,11.4c0.8,0,1.6-0.1,2.5-0.2c0.9-0.1,1.8,0.6,1.8,1.5c0.1,0.4-0.1,0.9-0.3,1.2
			c-0.2,0.3-0.7,0.6-1.2,0.6c-1,0.1-2,0.2-2.9,0.2c-7.5,0-14.6-3.3-28.2-13.3c-4.8-3.5-9.8-5.1-16-5.1c-3.4,0-6.8,0.5-10.2,1
			c-3.2,0.4-6.2,0.9-9.1,0.9c-1.5,0-2.8-0.1-4.1-0.3c-10.4-1.9-17.3-8.8-19.7-19.5c-0.3-1-0.6-3-0.6-5.5c0-0.5-0.3-0.9-0.8-1.1
			c-0.4-0.2-1-0.1-1.3,0.3c-9.7,9-10.3,17.9-9.8,22.3c0.8,7.2,5.2,12.5,9,14.1c1.2,0.5,2.7,0.8,4.3,0.8c1.7,0,3.4-0.2,5.4-0.5
			c2.2-0.3,4.7-0.7,7.4-0.7c7.4,0,14.2,2.5,21.6,7.9c0.8,0.6,0.9,1.6,0.3,2.3c-0.5,0.8-1.7,0.9-2.3,0.3c-6.8-4.9-12.9-7.2-19.5-7.2
			c-2.5,0-4.8,0.3-7,0.6c-2,0.2-4,0.5-5.9,0.5c-2.1,0-3.8-0.3-5.5-1c-4.8-1.9-8.9-7.2-10.6-13.6c-0.2-0.5-0.6-0.8-1.1-0.9
			c-0.5-0.1-1,0.3-1.2,0.7c-4.6,10-2,20,2.6,25.5c3.4,4.1,8,6.2,13.1,6.2c3.8,0,7.6-1.1,11.5-3.3c0.3-0.2,0.5-0.4,0.6-0.7
			c0.6-2.2,1.4-4.4,2.5-6.2c0.5-0.7,1.6-1,2.3-0.6c0.4,0.2,0.7,0.6,0.8,1.1c0.1,0.4,0,0.9-0.2,1.2c-3.3,5.4-4.2,14.8,0.5,21.6
			c3.6,5.2,9.7,7.8,18.1,7.8c0.8,0,1.5,0,2.2-0.1c0.4,0,0.8-0.3,1.1-0.7c0.2-0.4,0.2-0.9-0.2-1.2c-4.3-5.7,0.4-11.8,5-17.7
			c4.6-5.9,9.3-12,7.4-18.7c-0.2-0.9,0.2-1.8,1.2-2.1c0.9-0.2,1.8,0.3,2.1,1.2c2.3,8.3-3.4,15.7-8.1,21.7c-5.3,6.7-8,10.7-4.3,14.4
			c1.4,1.4,2.8,2.1,4.3,2.1c2.4,0,5.2-1.5,10.6-4.8c4.6-2.8,10.9-6.8,19-9.2c0.5-0.2,0.8-0.6,0.9-1.1c0-0.5-0.2-1-0.7-1.2
			c-2.2-1.1-4.1-2.4-5.2-4c-2.1-2.7-2.7-6-1.7-9.9c0.2-0.9,1.2-1.4,2.1-1.2c0.9,0.2,1.4,1.2,1.2,2.1c-0.7,2.8-0.3,5.2,1.1,7
			c1.8,2.3,6.4,5.2,18.2,6c2,0,3.9,0,5.9,0.2c5.9,0,12.2-1.2,17-3.1c0.3-0.2,0.7-0.5,0.7-0.8c0.1-0.4,0-0.8-0.2-1.1
			c-1.2-1.2-2.8-2-4.9-2.9c-3.3-1.4-7.5-3.2-8.1-9c-0.1-0.9,0.6-1.8,1.5-1.8s1.8,0.6,1.8,1.5c0.3,3.8,2.8,4.8,6,6.2
			c2.2,0.9,5,2.1,6.8,4.7c0.2,0.2,0.5,0.5,0.8,0.5c0.3,0.1,0.7-0.1,0.9-0.2C220,163.4,221.3,160.9,221.3,158.2z"/>
		<g>
			<path fill="#FFFFFF" d="M194,174.2c-1,0-1.9-0.1-2.9-0.2c-15.4,0.2-25.5,6.5-32.8,11c-2.5,1.5-5,3.1-7.5,4.1
				c-0.4,0.2-0.8,0.6-0.8,1s0.2,0.9,0.6,1.2c1.3,0.8,2.7,1.5,4.1,2.2c1.7,0.8,3.3,1,4.9,1.2c4.4,0.7,7.9,1.2,9.5,13.4
				c0.1,0.6,0.6,1.1,1.2,1.1h8.6c0.3,0,0.7-0.2,0.9-0.4s0.3-0.7,0.2-1c-1.7-12.2-0.2-13,3.2-15c1.2-0.7,2.4-1.4,3.8-2.6
				c3.3-2.8,6.8-5.8,7.9-14.8c0.1-0.3-0.1-0.7-0.2-0.9C194.7,174.3,194.3,174.2,194,174.2z"/>
		</g>
	</g>
</g>
</svg>
