<?xml version="1.0" encoding="utf-8"?>
<!-- Generator: Adobe Illustrator 18.0.0, SVG Export Plug-In . SVG Version: 6.00 Build 0)  -->
<!DOCTYPE svg PUBLIC "-//W3C//DTD SVG 1.1//EN" "http://www.w3.org/Graphics/SVG/1.1/DTD/svg11.dtd">
<svg version="1.1" id="Layer_1" xmlns="http://www.w3.org/2000/svg" xmlns:xlink="http://www.w3.org/1999/xlink" x="0px" y="0px"
	 viewBox="0 0 100 36" enable-background="new 0 0 100 36" xml:space="preserve">
<g>
	<path fill="#FFFFFF" d="M27.8,14.3v10.4h-3.3V14.3h-4.3v-2.9h11.9v2.9H27.8z"/>
	<path fill="#FFFFFF" d="M43.6,18.6v6.1h-3.2v-5.4c0-1.2-0.7-2-1.7-2c-1.2,0-2,0.9-2,2.8v4.6h-3.2V10.4h3.2v5.3
		c0.8-0.8,1.8-1.3,3.1-1.3C42.1,14.4,43.6,16.1,43.6,18.6z"/>
	<path fill="#FFFFFF" d="M56.8,20.5h-7.3c0.3,1.2,1.1,1.9,2.1,1.9c0.7,0,1.6-0.2,2.1-1.2l2.8,0.6C55.7,24,53.9,25,51.6,25
		c-2.9,0-5.3-2.1-5.3-5.3c0-3.1,2.4-5.3,5.3-5.3c2.8,0,5.1,2,5.1,5.3V20.5z M49.5,18.6h4.1c-0.3-1.1-1.1-1.6-2-1.6
		C50.7,17,49.8,17.6,49.5,18.6z"/>
	<path fill="#F3D02F" d="M70.8,24.7h-3.3v-5.3h-5.6v5.3h-3.3V11.4h3.3v5.2h5.6v-5.2h3.3V24.7z"/>
	<path fill="#F3D02F" d="M76,11.8c0,1-0.8,1.8-1.8,1.8c-1.1,0-1.8-0.8-1.8-1.8c0-1,0.8-1.8,1.8-1.8C75.2,10,76,10.8,76,11.8z
		 M72.6,24.7v-10h3.2v10H72.6z"/>
	<path fill="#F3D02F" d="M83.9,24.7h-3.2l-4.1-10h3.4l2.4,6.2l2.4-6.2H88L83.9,24.7z"/>
	<path fill="#F3D02F" d="M98,20.5h-7.3c0.3,1.2,1.1,1.9,2.1,1.9c0.7,0,1.6-0.2,2.1-1.2l2.8,0.6C96.9,24,95.1,25,92.8,25
		c-2.9,0-5.3-2.1-5.3-5.3c0-3.1,2.4-5.3,5.3-5.3c2.8,0,5.1,2,5.1,5.3V20.5z M90.8,18.6h4.1c-0.3-1.1-1.1-1.6-2-1.6
		C92,17,91.1,17.6,90.8,18.6z"/>
	<g>
		<g>
			<path fill="#F3D02F" d="M9.7,13.9c1,0,1.9,1,1.9,1.8c0,1-1.6,1-1.9,1l0,0c-0.3,0-1.9,0-1.9-1C7.7,14.9,8.6,13.9,9.7,13.9
				L9.7,13.9z M7.6,23.8l4,0l0.3,0.9l-4.7,0L7.6,23.8z M8.2,22.6l0.3-0.9l2.2,0l0.3,0.9L8.2,22.6z M9,20.4l0.6-1.5l0.6,1.5L9,20.4z
				 M4.4,25.4c-0.3,0-0.5,0-0.7-0.2c-1-0.4-1.5-1.5-1-2.5C3.7,20.1,7,18.2,8.7,18l-1.2,2.8l0,0l-0.9,2.1l0,0l-0.5,1.3
				C5.8,24.9,5.1,25.4,4.4,25.4L4.4,25.4z M9.6,28.3c-1.3,0-2.3-0.9-2.7-2.4l5.5,0C11.9,27.4,10.9,28.3,9.6,28.3L9.6,28.3z
				 M15.6,25.3c-0.2,0.1-0.5,0.2-0.7,0.2c-0.8,0-1.5-0.5-1.8-1.2L12.6,23l0,0l-0.8-2c0-0.1,0-0.2-0.1-0.2l-1.1-2.8
				c1.8,0.3,5,2.2,6.1,4.8C17.1,23.8,16.6,24.9,15.6,25.3L15.6,25.3z"/>
			
				<line fill="none" stroke="#F3D02F" stroke-width="0.8207" stroke-linecap="round" stroke-miterlimit="10" x1="8.2" y1="13.4" x2="7.6" y2="12"/>
			
				<line fill="none" stroke="#F3D02F" stroke-width="0.8207" stroke-linecap="round" stroke-miterlimit="10" x1="11.1" y1="13.4" x2="11.7" y2="12"/>
		</g>
		
			<polyline fill="none" stroke="#F3D02F" stroke-width="0.8207" stroke-linecap="round" stroke-linejoin="round" stroke-miterlimit="10" points="
			15.6,19.1 17.3,16 13.5,9.4 5.8,9.4 2,16 3.8,19.1 		"/>
	</g>
</g>
</svg>
