<svg xmlns="http://www.w3.org/2000/svg" viewBox="0 0 300 100"><path fill="#151632" d="M116.7 63.3c-4.3 5.9-11.3 9.7-19.2 9.7-13.1 0-23.8-10.6-23.8-23.7s10.6-23.8 23.8-23.8c7.8 0 14.9 3.8 19.2 9.7l-8.2 5.3c-3.1-2.8-6.5-4.6-11-4.6-7.4 0-13.3 6-13.3 13.4s6 13.3 13.3 13.3c4.5 0 7.4-1.5 11-4.5l8.2 5.2z"/><path fill="#55C4C3" d="M156.2 54.1c0 2.6-.6 5.1-1.5 7.4-1 2.3-2.4 4.3-4.1 6-1.7 1.8-3.8 3.1-6 4.1-2.4 1-4.9 1.5-7.4 1.5-2.6 0-5.1-.5-7.4-1.5-2.3-1-4.3-2.4-6.1-4.1-1.7-1.7-3.1-3.8-4.1-6-1-2.4-1.5-4.9-1.5-7.4-.1-2.6.5-5.1 1.5-7.4 1-2.3 2.4-4.4 4.1-6.1 1.7-1.7 3.7-3.1 6-4.1 2.4-1 4.9-1.5 7.4-1.5 2.6 0 5.1.5 7.4 1.5 2.3.9 4.3 2.3 6.1 4 1.7 1.8 3.1 3.8 4.1 6.1.9 2.4 1.4 4.9 1.5 7.5zm-9.5 0c0-5.3-4.3-9.6-9.7-9.6-5.3 0-9.6 4.3-9.6 9.6s4.3 9.7 9.7 9.7c5.2-.1 9.6-4.4 9.6-9.7z"/><path fill="#151632" d="M182.6 35.5v9.1c-.7-.1-1.5-.2-2.2-.2-5.1 0-9.6 4-9.6 10.9v16.5h-10.7V36.1h10.7v4.2c.5-1.2 2.4-5.2 8.5-5.2 1.1 0 2.3.1 3.3.4zm19.1 8.7v11.5c0 7 2.8 6.9 6.7 7v9.7c-13.4 2.4-17.9-4.5-17.9-13.1V44.2h-5.3V36h5.3V22.7h11.2V36h9.7v8.2h-9.7zm47.7 20.7c-4 4.6-8.8 8.1-15.6 8.1-9.8 0-17.9-7.3-19-17-1.2-10.9 7.6-21.2 19-21.2 11.9 0 19.2 11.7 17.3 22.8h-26.6c1.5 3.7 5.1 6.3 9.2 6.3 2.9 0 5.6-1.3 7.8-3.8l7.9 4.8zm-24.9-14.1h17.7c0-3.8-4.3-6.9-8.4-6.9-5 0-9.3 3.3-9.3 6.9zM290.3 66l-6.8 6.9-12.1-12.2-12.2 12.1-6.8-6.8 12.2-12.3-12.2-12.1 6.8-6.9 12.3 12.1 12-12.2 6.9 6.8-12.1 12.3 12 12.3z"/><g fill="#55C4C3"><path d="M66.3 51.1c0-4.4-2.2-4.9-6.2-5.3-3.5-.4-7.5-.8-9.2-5.7-.1-.2 0-.3 0-.5.1-.2.2-.3.4-.3.3-.1.7.1.8.4 1.5 4.2 4.8 4.5 8.1 4.9 1.6.2 3.4.4 4.9 1.2.2.1.3.1.5 0s.2-.3.2-.4c-.8-8.9-4.5-13.4-7.6-15.6-1.7-1.2-3.2-1.8-4.2-2-.2 0-.4 0-.5.2-.1.2-.1.4 0 .5.6 1.2 1 2.5 1.4 3.8.8 2.7 1.4 5.1 4.4 5.7.2 0 .3.1.4.3.1.1.1.3.1.5-.1.3-.3.5-.7.5H59c-3.8-.7-4.6-3.7-5.4-6.6-.5-1.9-1-3.8-2.4-4.9-1.9-1.6-5.2-2.7-8.1-2.7-.5 0-1 0-1.4.1-.9.1-2.3.5-3.3 1.4-.1.1-.2.2-.2.3 0 .1 0 .3.1.4 1.4 1.5 2.7 3.5 3.8 5.8.2.3 0 .7-.3.9-.3.2-.7 0-.9-.3-1.3-2.7-2.8-4.8-4.3-6.3-2.2-2.1-4.1-2.5-5.4-2.5-.3 0-.7 0-1 .1-1.8.3-2.9 1.5-3.3 2.4-.1.1 0 .3 0 .4.4.6.7 1.4.9 2.1.8 2.2 1.6 4.3 5.3 4.5.2 0 .3.1.5.2.1.1.2.3.2.5 0 .4-.3.6-.7.6-4.7-.2-5.7-3.1-6.5-5.3-.3-.9-.6-1.5-.9-2v-.1l-.1-.1s0-.1-.1-.1c-.4-.5-.9-.7-1.6-.7-1.6 0-2.8.5-3.7 1.5-.3.4-.5.8-.7 1.3v.1c0 .1 0 .1-.1.2v.1c-.4 1.2-.4 2.8-.1 4.2.6 2.6 2.2 5.8 6.7 6.6.4.1.9.1 1.4.1 1 0 2.2-.2 3.4-.3 1.2-.2 2.7-.4 4.1-.4 2.2 0 4.1.5 5.9 1.5.1.1.3.1.4 0 .1 0 .2-.1.3-.3.8-2 2-3.3 2.9-4.3 1.9-2.1 3.3-3.6 1.3-8.9-.1-.2-.1-.3 0-.5s.2-.3.4-.3c.3-.1.7.1.9.4 2.3 6 .5 8-1.6 10.2-1 1.1-2.2 2.4-2.9 4.4-.1.2 0 .4.2.5 4.6 3.4 7.1 4.5 9.6 4.5.3 0 .6 0 1-.1.4 0 .7.2.7.6 0 .2 0 .3-.1.5-.1.1-.3.2-.4.2-.4 0-.8.1-1.1.1-2.9 0-5.7-1.3-11-5.2-1.9-1.4-3.9-2-6.3-2-1.4 0-2.7.2-4 .4-1.2.2-2.4.3-3.6.3-.6 0-1.1 0-1.6-.1-4.1-.7-6.8-3.5-7.7-7.7-.1-.4-.2-1.2-.2-2.2 0-.2-.1-.4-.3-.4-.2-.1-.4 0-.5.1-3.8 3.5-4 7-3.8 8.8.3 2.8 2 4.9 3.5 5.5.5.2 1 .3 1.7.3s1.3-.1 2.1-.2c.9-.1 1.8-.2 2.9-.2 2.9 0 5.6 1 8.5 3.1.3.2.4.6.1.9-.2.3-.6.4-.9.1-2.6-1.9-5.1-2.8-7.7-2.8-1 0-1.9.1-2.8.2-.8.1-1.6.2-2.3.2-.8 0-1.5-.1-2.2-.4-1.9-.7-3.5-2.8-4.1-5.3-.1-.2-.2-.3-.4-.4-.2 0-.4.1-.5.3-1.8 3.9-.8 7.9 1 10 1.3 1.6 3.1 2.5 5.1 2.5 1.5 0 3-.4 4.5-1.3.1-.1.2-.2.2-.3.2-.9.6-1.7 1-2.4.2-.3.6-.4.9-.2.2.1.3.2.3.4s0 .3-.1.5c-1.3 2.1-1.7 5.8.2 8.5 1.4 2 3.8 3 7.1 3h.9c.2 0 .3-.1.4-.3.1-.2.1-.4-.1-.5-1.7-2.2.2-4.6 2-6.9 1.8-2.3 3.7-4.7 2.9-7.3-.1-.4.1-.7.5-.8.3-.1.7.1.8.5.9 3.3-1.3 6.2-3.2 8.5-2 2.6-3.1 4.2-1.7 5.7.6.6 1.1.8 1.7.8.9 0 2-.6 4.2-1.9 1.8-1.1 4.3-2.6 7.5-3.6.2-.1.3-.2.3-.4s-.1-.4-.3-.5c-.9-.4-1.6-1-2.1-1.6-.8-1.1-1-2.4-.7-3.9.1-.3.5-.6.8-.5.4.1.6.5.5.8-.3 1.1-.1 2 .4 2.7.7.9 2.5 2.1 7.1 2.4.8 0 1.5 0 2.3.1 2.3 0 4.8-.5 6.7-1.2.1-.1.3-.2.3-.3 0-.2 0-.3-.1-.4-.4-.5-1.1-.8-1.9-1.2-1.3-.6-2.9-1.3-3.2-3.5 0-.4.2-.7.6-.7.4 0 .7.2.7.6.1 1.5 1.1 1.9 2.4 2.4.9.4 2 .8 2.7 1.8.1.1.2.2.3.2.1 0 .3 0 .4-.1 1.2-1 1.7-2 1.7-3.1z"/><path d="M55.6 57.4c-.4 0-.7 0-1.1-.1-6 .1-10 2.5-12.9 4.3-1 .6-2 1.2-2.9 1.6-.2.1-.3.2-.3.4s.1.4.2.5c.5.3 1.1.6 1.6.8.7.3 1.3.4 1.9.5 1.7.3 3.1.5 3.7 5.3 0 .2.2.4.5.4h3.4c.1 0 .3-.1.4-.2.1-.1.1-.2.1-.4-.7-4.8-.1-5.1 1.3-5.9.4-.3 1-.5 1.5-1 1.3-1.1 2.7-2.3 3.1-5.8 0-.1 0-.3-.1-.4-.2.1-.3 0-.4 0z"/></g></svg>