<svg xmlns="http://www.w3.org/2000/svg" viewBox="0 0 300 100"><path fill="#151632" d="M86.5 37.6v30.5H77V37.6H64.5v-8.3h34.6v8.3H86.5zm46.2 12.7v17.8h-9.2V52.2c0-3.4-2-5.7-5-5.7-3.6 0-6 2.5-6 8.1v13.5h-9.3V26.4h9.3v15.4c2.3-2.3 5.3-3.6 9-3.6 6.7 0 11.2 4.8 11.2 12.1zm38.3 5.6h-21.3c.8 3.5 3.1 5.6 6.3 5.6 2.1 0 4.6-.5 6.2-3.4l8.2 1.7C167.9 66 162.6 69 156 69c-8.4 0-15.3-6.2-15.3-15.4s6.9-15.4 15.4-15.4c8.2 0 14.8 5.9 15 15.4v2.3zm-21.1-5.6h12c-.9-3.1-3.2-4.6-5.8-4.6-2.7 0-5.3 1.6-6.2 4.6z"/><path fill="#F3D02F" d="M211.9 68.1h-9.5V52.8h-16.3v15.3h-9.6V29.3h9.6v15.1h16.3V29.3h9.5v38.8zm15.3-37.6c0 3-2.3 5.2-5.4 5.2-3.1 0-5.3-2.2-5.3-5.2 0-2.8 2.2-5.3 5.3-5.3 3.1 0 5.4 2.4 5.4 5.3zm-10.1 37.6V39h9.3v29.1h-9.3zm33 0h-9.4l-12-29.1h9.8l7 18 6.9-18h9.8l-12.1 29.1zm41.2-12.2H270c.8 3.5 3.1 5.6 6.3 5.6 2.1 0 4.6-.5 6.2-3.4l8.2 1.7c-2.5 6.1-7.8 9.1-14.4 9.1-8.4 0-15.3-6.2-15.3-15.4s7-15.4 15.4-15.4c8.2 0 14.8 5.9 15 15.4v2.4zm-21.2-5.6h12c-.9-3.1-3.2-4.6-5.8-4.6-2.6 0-5.3 1.6-6.2 4.6zM33.7 36.4c3 0 5.6 2.9 5.6 5.3 0 2.8-4.6 3-5.5 3-1 0-5.5-.1-5.5-3-.3-2.4 2.3-5.3 5.4-5.3zm-6 29.1h11.6l1 2.6H26.7l1-2.6zm1.6-3.7l1-2.6h6.5l1 2.6h-8.5zm2.5-6.2l1.8-4.4 1.8 4.4h-3.6zM18.2 70.1c-.8 0-1.5-.1-2.1-.5-2.8-1.2-4.2-4.5-3-7.3 3.2-7.6 12.7-13.1 17.9-13.9l-3.4 8.3-2.6 6.2-1.6 3.7c-1 2.1-3 3.5-5.2 3.5zm15.3 8.3c-3.7 0-6.7-2.7-7.9-6.9l15.9.1c-1.2 4.3-4.3 6.8-8 6.8zm17.6-8.7c-.7.3-1.5.4-2.1.4-2.2 0-4.3-1.4-5.2-3.5L42.2 63l-2.3-5.8c0-.2-.1-.5-.2-.7l-3.2-8.1c5.2.9 14.7 6.4 17.8 14 1 3-.3 6.2-3.2 7.3z"/><path fill="none" stroke="#F3D02F" stroke-width="2.394" stroke-linecap="round" stroke-miterlimit="10" d="M29.4 35.1l-1.9-3.9m10.3 3.9l1.9-3.9"/><path fill="none" stroke="#F3D02F" stroke-width="2.394" stroke-linecap="round" stroke-linejoin="round" stroke-miterlimit="10" d="M51 51.6l4.9-8.8-11.2-19.3H22.5L11.3 42.8l5.3 8.8"/></svg>