<?xml version="1.0" encoding="utf-8"?>
<!-- Generator: Adobe Illustrator 18.0.0, SVG Export Plug-In . SVG Version: 6.00 Build 0)  -->
<!DOCTYPE svg PUBLIC "-//W3C//DTD SVG 1.1//EN" "http://www.w3.org/Graphics/SVG/1.1/DTD/svg11.dtd">
<svg version="1.1" id="Layer_1" xmlns="http://www.w3.org/2000/svg" x="0px" y="0px"
     viewBox="0 0 624 200" enable-background="new 0 0 624 200" xml:space="preserve">
<g>
	<g>
		<path fill="#151632" d="M172.2,73v66.4h-20.7V73h-27.4V54.8h75.5V73H172.2z"/>
		<path fill="#151632" d="M272.8,100.5v38.9h-20.1v-34.6c0-7.4-4.4-12.5-11-12.5c-7.8,0-13,5.4-13,17.7v29.4h-20.2V48.5h20.2V82
			c4.9-5,11.5-7.9,19.6-7.9C263,74.1,272.8,84.6,272.8,100.5z"/>
		<path fill="#151632" d="M356.3,112.8h-46.4c1.6,7.6,6.8,12.2,13.6,12.2c4.7,0,10.1-1.1,13.5-7.3l17.9,3.7
			c-5.4,13.4-16.9,19.8-31.4,19.8c-18.3,0-33.4-13.5-33.4-33.6c0-19.9,15.1-33.6,33.6-33.6c17.9,0,32.3,12.9,32.7,33.6V112.8z
			 M310.3,100.5h26.1c-1.9-6.8-6.9-10-12.7-10C318,90.5,312.2,94,310.3,100.5z"/>
		<path fill="#F3D02F" d="M445.5,139.3h-20.7v-33.4h-35.6v33.4h-20.8V54.8h20.8v32.9h35.6V54.8h20.7V139.3z"/>
		<path fill="#F3D02F" d="M478.6,57.3c0,6.4-4.9,11.2-11.7,11.2c-6.8,0-11.6-4.8-11.6-11.2c0-6.2,4.8-11.5,11.6-11.5
			C473.7,45.8,478.6,51.1,478.6,57.3z M456.8,139.3V76h20.2v63.3H456.8z"/>
		<path fill="#F3D02F" d="M528.5,139.3h-20.6l-26.2-63.5H503l15.3,39.1l15.1-39.1h21.3L528.5,139.3z"/>
		<path fill="#F3D02F" d="M618.3,112.8h-46.4c1.6,7.6,6.8,12.2,13.6,12.2c4.7,0,10.1-1.1,13.5-7.3l17.9,3.7
			c-5.4,13.4-16.9,19.8-31.4,19.8c-18.3,0-33.4-13.5-33.4-33.6c0-19.9,15.1-33.6,33.6-33.6c17.9,0,32.3,12.9,32.7,33.6V112.8z
			 M572.2,100.5h26.1c-1.9-6.8-6.9-10-12.7-10C579.9,90.5,574.1,94,572.2,100.5z"/>
	</g>
	<g>
		<g>
			<path fill="#F3D02F" d="M57,70.3c6.6,0,12.2,6.4,12.2,11.5c0,6.1-10,6.6-12,6.6l0,0c-2.2,0-12-0.3-12-6.6
				C44.8,76.7,50.4,70.3,57,70.3L57,70.3z M44.1,133.6l25.2,0.1l2.2,5.6l-29.6-0.1L44.1,133.6z M47.6,125.6l2.2-5.6l14.2,0l2.2,5.6
				L47.6,125.6z M53,112.1l3.9-9.5l3.9,9.5L53,112.1z M23.3,143.6c-1.7,0-3.2-0.3-4.6-1c-6.1-2.7-9.3-9.8-6.5-15.9
				c6.9-16.6,27.7-28.5,39-30.2l-7.4,18.1l0,0L38.3,128l0,0l-3.5,8.1C32.6,140.7,28.2,143.6,23.3,143.6L23.3,143.6z M56.7,161.8
				c-8.1,0-14.7-5.9-17.3-15l34.7,0.1C71.4,156.2,64.8,161.8,56.7,161.8L56.7,161.8z M95,142.9c-1.5,0.7-3.2,1-4.6,1
				c-4.9,0-9.3-3-11.2-7.6l-3.4-8.1l0,0l-5.1-12.7c0-0.5-0.2-1-0.5-1.5l-7-17.6c11.2,2,32,14,38.8,30.5
				C104.3,133.3,101.3,140.4,95,142.9L95,142.9z"/>

				<line fill="none" stroke="#F3D02F" stroke-width="5.2146" stroke-linecap="round" stroke-miterlimit="10" x1="47.8" y1="67.5" x2="43.7" y2="58.9"/>

				<line fill="none" stroke="#F3D02F" stroke-width="5.2146" stroke-linecap="round" stroke-miterlimit="10" x1="66.1" y1="67.5" x2="70.1" y2="58.9"/>
		</g>

			<polyline fill="none" stroke="#F3D02F" stroke-width="5.2146" stroke-linecap="round" stroke-linejoin="round" stroke-miterlimit="10" points="
			94.8,103.5 105.5,84.2 81.1,42.1 32.7,42.1 8.3,84.2 20,103.5 		"/>
	</g>
</g>
</svg>
